# xmcd
# 
# Track frame offsets:
#     150
#     11806
#     36592
#     54644
#     74538
#     92048
#     103245
#     118566
#     137919
#     154776
#     171984
#     186144
#     211447
# 
# Disc length: 3196
# 
# Revision: 0
# Processed by: cddbd v1.5.2PL0 Copyright (c) Steve Scherf et al.
# Submitted via: fre:ac v1.0.17
# 
DISCID=c50c7a0d
DTITLE=Ben Harper - Welcome to the Cruel World
DYEAR=1993
DGENRE=Blues/Folk
TTITLE0=The Three of Us
TTITLE1=Whipping Boy
TTITLE2=Breakin' Down
TTITLE3=Don't Take that Attitude to Your Grave
TTITLE4=Waiting on an Angel
TTITLE5=Mama's Got a Girlfriend Now
TTITLE6=Forever
TTITLE7=Like a King
TTITLE8=Pleasure and Pain
TTITLE9=Walk Away
TTITLE10=How Many Miles Must We March
TTITLE11=Welcome to the Cruel World
TTITLE12=I'll Rise
EXTD=
EXTT0=
EXTT1=
EXTT2=
EXTT3=
EXTT4=
EXTT5=
EXTT6=
EXTT7=
EXTT8=
EXTT9=
EXTT10=
EXTT11=
EXTT12=
PLAYORDER=
